<svg xmlns="http://www.w3.org/2000/svg" viewBox="0 0 753.26 130.28"><defs><style>.cls-1{fill:#e63d11;}</style></defs><g id="레이어_2" data-name="레이어 2"><g id="Layer_1" data-name="Layer 1"><path class="cls-1" d="M746.53,0a3.32,3.32,0,0,0-3.23,2.75v0a16.37,16.37,0,0,1-.82,2.66,14.51,14.51,0,0,1-1.32,2.46,13.82,13.82,0,0,1-1.77,2.18,14.15,14.15,0,0,1-2.17,1.76,13.83,13.83,0,0,1-2.46,1.32,15.44,15.44,0,0,1-2.66.82,14.79,14.79,0,0,1-2.8.29,14.5,14.5,0,0,1-2.78-.29,16.21,16.21,0,0,1-2.68-.82,15.37,15.37,0,0,1-2.46-1.32,14.07,14.07,0,0,1-2.16-1.76,13.88,13.88,0,0,1-1.78-2.18,13.75,13.75,0,0,1-1.3-2.46,13.87,13.87,0,0,1-.82-2.66V2.72A3.31,3.31,0,0,0,712.09,0H699.5a3.25,3.25,0,0,0-3.2,2.61,14.27,14.27,0,0,1-14,11.66,14.28,14.28,0,0,1-14-11.66A3.23,3.23,0,0,0,665.07,0H652.48a3.23,3.23,0,0,0-3.19,2.61,14.31,14.31,0,0,1-14,11.66,14.29,14.29,0,0,1-14-11.66A3.24,3.24,0,0,0,618,0H605.45a3.23,3.23,0,0,0-3.19,2.61,14.29,14.29,0,0,1-14,11.66,14.29,14.29,0,0,1-14-11.66A3.23,3.23,0,0,0,571,0h-12.6a3.25,3.25,0,0,0-3.2,2.61,14.28,14.28,0,0,1-14,11.66,14.27,14.27,0,0,1-14-11.66A3.24,3.24,0,0,0,524,0H511.4a3.23,3.23,0,0,0-3.19,2.61,14.28,14.28,0,0,1-14,11.66,14.29,14.29,0,0,1-14-11.66A3.23,3.23,0,0,0,477,0H464.39a3.25,3.25,0,0,0-3.2,2.61,14.29,14.29,0,0,1-14,11.66,14.28,14.28,0,0,1-14-11.66A3.23,3.23,0,0,0,430,0h-12.6a3.24,3.24,0,0,0-3.2,2.61c0,.12-.05.23-.08.35a15.47,15.47,0,0,1-.77,2.48A13.83,13.83,0,0,1,412,7.9a13.82,13.82,0,0,1-1.77,2.18,14.15,14.15,0,0,1-2.17,1.76,13.83,13.83,0,0,1-2.46,1.32,15.44,15.44,0,0,1-2.66.82,14.77,14.77,0,0,1-2.79.29h-.08c-.43,0-.87,0-1.3-.06l-.16,0c-.42,0-.83-.1-1.24-.18h0a14.43,14.43,0,0,1-7.27-3.9,13.76,13.76,0,0,1-1.32-1.54l-.09-.11q-.27-.36-.51-.75s-.07-.11-.11-.17c-.16-.25-.3-.51-.44-.77a1.14,1.14,0,0,1-.1-.19,8.17,8.17,0,0,1-.38-.79,2.14,2.14,0,0,1-.1-.22c-.11-.26-.21-.52-.31-.79,0-.11-.07-.22-.11-.33s-.15-.47-.22-.71-.18-.73-.25-1.1A3.24,3.24,0,0,0,382.93,0h-12.6a3.23,3.23,0,0,0-3.19,2.61c-.07.37-.16.74-.26,1.1s-.14.48-.22.71-.07.22-.1.33c-.1.27-.2.53-.31.79a2.14,2.14,0,0,0-.1.22c-.12.27-.25.53-.38.79,0,.07-.07.13-.1.19-.14.26-.29.52-.45.77a1,1,0,0,1-.11.17c-.16.26-.32.51-.5.75l-.09.11a13.76,13.76,0,0,1-1.32,1.54,14.5,14.5,0,0,1-7.28,3.9h0c-.41.08-.83.14-1.24.18l-.16,0c-.44,0-.87.06-1.31.06h-.07a14.87,14.87,0,0,1-2.8-.29,15.33,15.33,0,0,1-2.65-.82,13.18,13.18,0,0,1-2.46-1.32A13.76,13.76,0,0,1,343,10.08a13.23,13.23,0,0,1-1.76-2.18A13.22,13.22,0,0,1,340,5.44,14.56,14.56,0,0,1,339.17,3c0-.12-.06-.23-.08-.35A3.23,3.23,0,0,0,335.9,0H323.3a3.23,3.23,0,0,0-3.19,2.61,14.29,14.29,0,0,1-14,11.66,14.3,14.3,0,0,1-14-11.66A3.23,3.23,0,0,0,288.87,0H276.28a3.23,3.23,0,0,0-3.19,2.61,14.28,14.28,0,0,1-14,11.66,14.28,14.28,0,0,1-14-11.66A3.25,3.25,0,0,0,241.85,0h-12.6a3.23,3.23,0,0,0-3.19,2.61,14.28,14.28,0,0,1-14,11.66A14.28,14.28,0,0,1,198,2.61,3.23,3.23,0,0,0,194.84,0H182.23A3.24,3.24,0,0,0,179,2.61a14.28,14.28,0,0,1-14,11.66A14.28,14.28,0,0,1,151,2.61,3.24,3.24,0,0,0,147.8,0H135.22A3.23,3.23,0,0,0,132,2.61a14.3,14.3,0,0,1-14,11.66A14.29,14.29,0,0,1,104,2.61,3.25,3.25,0,0,0,100.77,0H88.19A3.23,3.23,0,0,0,85,2.61,14.29,14.29,0,0,1,71,14.27,14.28,14.28,0,0,1,57,2.61,3.23,3.23,0,0,0,53.76,0H41.17A3.31,3.31,0,0,0,38,2.72v.06a14.61,14.61,0,0,1-.82,2.66A13.79,13.79,0,0,1,35.81,7.9,13.34,13.34,0,0,1,34,10.08a13.61,13.61,0,0,1-2.16,1.76,14.56,14.56,0,0,1-2.46,1.32,15.82,15.82,0,0,1-2.67.82,14.66,14.66,0,0,1-2.78.29,14.79,14.79,0,0,1-2.8-.29,15.44,15.44,0,0,1-2.66-.82A13.83,13.83,0,0,1,16,11.84a14.23,14.23,0,0,1-2.18-1.76A13.76,13.76,0,0,1,12.1,7.9a13.83,13.83,0,0,1-1.32-2.46A15.44,15.44,0,0,1,10,2.78v0A3.31,3.31,0,0,0,6.73,0H0V117.38a12.94,12.94,0,0,0,12.89,12.9H740.36a12.94,12.94,0,0,0,12.9-12.9V0Z"/></g></g></svg>