<svg xmlns="http://www.w3.org/2000/svg" xmlns:xlink="http://www.w3.org/1999/xlink" viewBox="0 0 207.67 265.84"><defs><style>.cls-1{fill:none;}.cls-2{clip-path:url(#clip-path);}.cls-3{fill:#e67759;}</style><clipPath id="clip-path" transform="translate(-6.58 29.55)"><rect class="cls-1" width="214.25" height="236.29" rx="8"/></clipPath></defs><g id="레이어_2" data-name="레이어 2"><g id="Layer_1" data-name="Layer 1"><g class="cls-2"><path class="cls-3" d="M206.28-29.55H6.58v7.79a2.06,2.06,0,0,0,1.69,2h0a9.54,9.54,0,0,1,1.65.51,8.56,8.56,0,0,1,1.52.82,8.75,8.75,0,0,1,1.34,1.09A8.75,8.75,0,0,1,13.9-16a8.31,8.31,0,0,1,.82,1.53,10.07,10.07,0,0,1,.51,1.64,9.22,9.22,0,0,1,.17,1.73,8.92,8.92,0,0,1-2.59,6.23A8.92,8.92,0,0,1,8.2-2.45a2,2,0,0,0-1.62,2V7.31a2,2,0,0,0,1.62,2,8.82,8.82,0,0,1,0,17.34,2,2,0,0,0-1.62,2v7.79a2,2,0,0,0,1.62,2,8.82,8.82,0,0,1,0,17.34,2,2,0,0,0-1.62,2v7.78a2,2,0,0,0,1.62,2,8.82,8.82,0,0,1,0,17.34,2,2,0,0,0-1.62,2v7.79a2,2,0,0,0,1.62,2,8.81,8.81,0,0,1,0,17.33,2,2,0,0,0-1.62,2v7.79a2,2,0,0,0,1.62,2,8.82,8.82,0,0,1,0,17.34,2,2,0,0,0-1.62,2v7.78a2,2,0,0,0,1.62,2A8.83,8.83,0,0,1,8.2,172a2,2,0,0,0-1.62,2v7.78a2,2,0,0,0,1.62,2,8.82,8.82,0,0,1,0,17.34,2,2,0,0,0-1.62,2v7.79a2.06,2.06,0,0,0,1.69,2h0a8.75,8.75,0,0,1,1.65.51,8.51,8.51,0,0,1,1.52.81,8.81,8.81,0,0,1,1.34,1.1,8.67,8.67,0,0,1,1.09,1.33,9.31,9.31,0,0,1,.82,1.52,11,11,0,0,1,.51,1.66,9,9,0,0,1,.17,1.72,9.22,9.22,0,0,1-.17,1.73,10.38,10.38,0,0,1-.51,1.64,8.22,8.22,0,0,1-.82,1.52,8.37,8.37,0,0,1-1.09,1.35,8.75,8.75,0,0,1-1.34,1.09,8.56,8.56,0,0,1-1.52.82,9.51,9.51,0,0,1-1.65.5h0a2,2,0,0,0-1.7,2v4.16h199.7a8,8,0,0,0,8-8V-21.58A8,8,0,0,0,206.28-29.55Z" transform="translate(-6.58 29.55)"/></g></g></g></svg>