<svg xmlns="http://www.w3.org/2000/svg" viewBox="0 0 45.57 42.61"><defs><style>.cls-1{fill:#e63d11;stroke:#e63d11;stroke-linecap:round;stroke-linejoin:round;stroke-width:2.5px;}</style></defs><g id="레이어_2" data-name="레이어 2"><g id="Layer_1" data-name="Layer 1"><path class="cls-1" d="M22.78,41.36a1.3,1.3,0,0,1-.6-.15C12.65,36.45-.11,24.41,1.37,12.59,2,7.81,6,2.16,11.1,1.39A12.59,12.59,0,0,1,13,1.25a11.45,11.45,0,0,1,9.83,5.16,11.48,11.48,0,0,1,9.84-5.16,12.45,12.45,0,0,1,1.84.14c5.08.77,9.14,6.42,9.74,11.2,1.48,11.83-11.28,23.86-20.82,28.62A1.27,1.27,0,0,1,22.78,41.36Z"/></g></g></svg>