<svg xmlns="http://www.w3.org/2000/svg" viewBox="0 0 51.61 52.66"><defs><style>.cls-1{fill:#3e82f1;}.cls-1,.cls-2,.cls-3,.cls-4{fill-rule:evenodd;}.cls-2{fill:#32a753;}.cls-3{fill:#f9bb00;}.cls-4{fill:#e74133;}</style></defs><g id="레이어_2" data-name="레이어 2"><g id="Layer_1" data-name="Layer 1"><path class="cls-1" d="M51.61,26.93a30.44,30.44,0,0,0-.48-5.39H26.33V31.73H40.5a12.12,12.12,0,0,1-5.25,8v6.6h8.51c5-4.58,7.85-11.33,7.85-19.35Z"/><path class="cls-2" d="M26.33,52.66a25.16,25.16,0,0,0,17.43-6.38l-8.51-6.6a15.93,15.93,0,0,1-8.92,2.51A15.68,15.68,0,0,1,11.6,31.33H2.8v6.83a26.33,26.33,0,0,0,23.53,14.5Z"/><path class="cls-3" d="M11.6,31.33a15.48,15.48,0,0,1,0-10V14.51H2.8a26.37,26.37,0,0,0,0,23.65l8.8-6.83Z"/><path class="cls-4" d="M26.33,10.47A14.23,14.23,0,0,1,36.4,14.41L44,6.86A25.3,25.3,0,0,0,26.33,0,26.32,26.32,0,0,0,2.8,14.51l8.8,6.82A15.68,15.68,0,0,1,26.33,10.47Z"/></g></g></svg>