<svg xmlns="http://www.w3.org/2000/svg" viewBox="0 0 63.61 64.25"><defs><style>.cls-1,.cls-2{fill:none;stroke-linecap:round;stroke-linejoin:round;}.cls-1{stroke:#333;stroke-width:1.99px;}.cls-2{stroke:#000;stroke-width:2.14px;}</style></defs><g id="레이어_2" data-name="레이어 2"><g id="Layer_1" data-name="Layer 1"><g id="g6665"><path class="cls-1" d="M18.08,37H20A28,28,0,0,0,32,50c1.4.8,1.7,3.31,2,5.72.41,3.34.92,7.49,5,7.49,2.34,0,4.52-1.67,5.83-4.47a14.65,14.65,0,0,0-2.46-15.45C40.5,41,40.71,39.17,41,38.34H52.08c5.89,0,9-3.11,9.53-6.19a4.49,4.49,0,0,0-1.1-3.9,5.89,5.89,0,0,0,2-4.62,5.91,5.91,0,0,0-2-4.63,5.4,5.4,0,0,0,1.27-4.78A6.33,6.33,0,0,0,58,9.29a4.18,4.18,0,0,0,.59-3.71C58,3.34,55.26,1.07,50.77,1.07h-17c-10.3,0-13.15,6.74-13.85,9.15H18.08a1,1,0,0,0-.35.07"/><rect class="cls-1" x="1.07" y="10.24" width="13.68" height="26.76" rx="0.89"/><path class="cls-2" d="M18.08,37H20A28,28,0,0,0,32,50c1.4.8,1.7,3.31,2,5.72.41,3.34.92,7.49,5,7.49,2.34,0,4.52-1.67,5.83-4.47a14.65,14.65,0,0,0-2.46-15.45C40.5,41,40.71,39.17,41,38.34H52.08c5.89,0,9-3.11,9.53-6.19a4.49,4.49,0,0,0-1.1-3.9,5.89,5.89,0,0,0,2-4.62,5.91,5.91,0,0,0-2-4.63,5.4,5.4,0,0,0,1.27-4.78A6.33,6.33,0,0,0,58,9.29a4.18,4.18,0,0,0,.59-3.71C58,3.34,55.26,1.07,50.77,1.07h-17c-10.3,0-13.15,6.74-13.85,9.15H18.08a1,1,0,0,0-.35.07"/><rect class="cls-2" x="1.07" y="10.24" width="13.68" height="26.76" rx="0.89"/></g></g></g></svg>