<svg xmlns="http://www.w3.org/2000/svg" viewBox="0 0 45.72 42.76"><defs><style>.cls-1{fill:none;stroke:#c2c2c2;stroke-linejoin:round;stroke-width:2.66px;}</style></defs><g id="레이어_2" data-name="레이어 2"><g id="Layer_1" data-name="Layer 1"><path class="cls-1" d="M22.86,41.43a1.26,1.26,0,0,1-.6-.14C12.73,36.53,0,24.49,1.45,12.67,2,7.89,6.1,2.24,11.18,1.47A11.35,11.35,0,0,1,13,1.33a11.46,11.46,0,0,1,9.83,5.16A11.47,11.47,0,0,1,32.7,1.33a11.23,11.23,0,0,1,1.84.14c5.08.77,9.14,6.41,9.74,11.2C45.76,24.49,33,36.53,23.46,41.29A1.26,1.26,0,0,1,22.86,41.43Z"/></g></g></svg>