<svg xmlns="http://www.w3.org/2000/svg" viewBox="0 0 60.08 55.19"><defs><style>.cls-1{fill:#391b1b;}.cls-2{fill:#fae300;}</style></defs><g id="레이어_2" data-name="레이어 2"><g id="Layer_1" data-name="Layer 1"><path class="cls-1" d="M30,0C13.45,0,0,10.63,0,23.75c0,8.54,5.7,16,14.25,20.2-.63,2.35-2.27,8.5-2.6,9.82-.41,1.63.59,1.61,1.25,1.17s8.24-5.59,11.56-7.85A39.18,39.18,0,0,0,30,47.5c16.59,0,30-10.64,30-23.75S46.63,0,30,0"/><path class="cls-2" d="M18,16.75H9.17a1.5,1.5,0,1,0,0,3H12V30.27a1.5,1.5,0,0,0,.43,1,1.47,1.47,0,0,0,1,.42h.32a1.43,1.43,0,0,0,1-.42,1.45,1.45,0,0,0,.43-1V19.74H18a1.5,1.5,0,1,0,0-3Z"/><path class="cls-2" d="M39.06,28.91H35V18.17a1.62,1.62,0,1,0-3.24,0V29.75a2.28,2.28,0,0,0,0,.26,2.11,2.11,0,0,0,0,.26,1.35,1.35,0,0,0,1.35,1.36h6a1.36,1.36,0,0,0,0-2.72Z"/><path class="cls-2" d="M52.12,29.41l-4.56-6,4.12-4.12a1.42,1.42,0,1,0-2-2l-5.09,5.09V18.17a1.62,1.62,0,1,0-3.24,0V30.11a1.62,1.62,0,1,0,3.24,0V26.42l.92-.92,4.31,5.65a1.45,1.45,0,0,0,2.32-1.74Z"/><path class="cls-2" d="M30.52,29.79l-4.37-12,0,0a2.15,2.15,0,0,0-2.05-1.26A2.1,2.1,0,0,0,22,18.05a1.19,1.19,0,0,0-.08.2L17.56,29.79a1.47,1.47,0,0,0,.89,1.86,1.46,1.46,0,0,0,1.85-.89l.75-2.13h6l.74,2.13a1.45,1.45,0,1,0,2.74-1ZM22,25.92l2-5.75h.07l2,5.74Z"/></g></g></svg>