<svg xmlns="http://www.w3.org/2000/svg" viewBox="0 0 30.17 39.73"><defs><style>.cls-1{fill:#fff;}</style></defs><g id="레이어_2" data-name="레이어 2"><g id="Layer_1" data-name="Layer 1"><path class="cls-1" d="M30.17,39.69,21.06,21.55a11.34,11.34,0,0,1-6.56,2.1H12.19v2.49l6.9,13.55Z"/><path class="cls-1" d="M24.32,6.52A11.13,11.13,0,0,0,14.19,0H0V39.73H11.4v-17h2.79A11.15,11.15,0,0,0,25.33,11.63v-.48A11.16,11.16,0,0,0,24.32,6.52Zm-12.92,10-.67.74L4.84,11.7l-.09-.08,0,0,1.87-2,3.92,3.68.83-.92,3.18-3.51L17.12,6,19.18,7.9,16,11.43Z"/></g></g></svg>