<svg xmlns="http://www.w3.org/2000/svg" viewBox="0 0 103.06 135.75"><defs><style>.cls-1{fill:#093f66;}.cls-2{fill:#e83b0c;}</style></defs><g id="레이어_2" data-name="레이어 2"><g id="Layer_1" data-name="Layer 1"><path class="cls-1" d="M103.06,135.61,72,73.63a38.74,38.74,0,0,1-22.44,7.16H41.64V89.3l23.57,46.31Z"/><path class="cls-2" d="M83.08,22.26A38.07,38.07,0,0,0,48.47,0H0V135.75H39V77.81h9.51A38.17,38.17,0,0,0,86.56,39.72V38.09A37.94,37.94,0,0,0,83.08,22.26ZM39,56.29l-2.29,2.53L16.53,40l-.29-.27.1-.1,6.38-6.82,13.4,12.54L39,42.18l10.86-12,8.68-9.57,7,6.37L54.61,39Z"/></g></g></svg>