<svg xmlns="http://www.w3.org/2000/svg" viewBox="0 0 275.89 87.02"><defs><style>.cls-1{fill:#fff;}.cls-2{fill:none;stroke:#c2c2c2;stroke-miterlimit:10;stroke-width:2.65px;}</style></defs><g id="레이어_2" data-name="레이어 2"><g id="Layer_1" data-name="Layer 1"><path class="cls-1" d="M263.18,43.51a11.39,11.39,0,0,1,11.38-11.38V11.41A10.08,10.08,0,0,0,264.48,1.33H11.41A10.08,10.08,0,0,0,1.33,11.41V32.13a11.38,11.38,0,0,1,0,22.76V75.61A10.08,10.08,0,0,0,11.41,85.69H264.48a10.08,10.08,0,0,0,10.08-10.08V54.89A11.39,11.39,0,0,1,263.18,43.51Z"/><path class="cls-1" d="M263.18,43.51a11.39,11.39,0,0,1,11.38-11.38V11.41A10.08,10.08,0,0,0,264.48,1.33H11.41A10.08,10.08,0,0,0,1.33,11.41V32.13a11.38,11.38,0,0,1,0,22.76V75.61A10.08,10.08,0,0,0,11.41,85.69H264.48a10.08,10.08,0,0,0,10.08-10.08V54.89A11.39,11.39,0,0,1,263.18,43.51Z"/><path class="cls-2" d="M263.18,43.51a11.39,11.39,0,0,1,11.38-11.38V11.41A10.08,10.08,0,0,0,264.48,1.33H11.41A10.08,10.08,0,0,0,1.33,11.41V32.13a11.38,11.38,0,0,1,0,22.76V75.61A10.08,10.08,0,0,0,11.41,85.69H264.48a10.08,10.08,0,0,0,10.08-10.08V54.89A11.39,11.39,0,0,1,263.18,43.51Z"/></g></g></svg>