<svg xmlns="http://www.w3.org/2000/svg" viewBox="0 0 57.9 59.56"><defs><style>.cls-1,.cls-2{fill:none;stroke:#000;stroke-linecap:round;stroke-linejoin:round;}.cls-1{stroke-width:2.14px;}.cls-2{stroke-width:2.16px;}</style></defs><g id="레이어_2" data-name="레이어 2"><g id="Layer_1" data-name="Layer 1"><path class="cls-1" d="M48.33,32.52V57.18A1.31,1.31,0,0,1,47,58.49H2.37a1.31,1.31,0,0,1-1.3-1.31V12.53a1.31,1.31,0,0,1,1.3-1.3H25.63"/><path class="cls-2" d="M48.19,1.83,22.64,27.37,19.81,38.08l10.71-2.83L56.07,9.71a2.58,2.58,0,0,0,0-3.64L51.82,1.83A2.57,2.57,0,0,0,48.19,1.83Z"/><line class="cls-2" x1="22.64" y1="27.37" x2="30.52" y2="35.25"/><line class="cls-2" x1="44.52" y1="5.49" x2="52.4" y2="13.37"/><path class="cls-1" d="M48.19,1.83,22.64,27.37,19.81,38.08l10.71-2.83L56.07,9.71a2.58,2.58,0,0,0,0-3.64L51.82,1.83A2.57,2.57,0,0,0,48.19,1.83Z"/><line class="cls-1" x1="22.64" y1="27.37" x2="30.52" y2="35.25"/><line class="cls-1" x1="44.52" y1="5.49" x2="52.4" y2="13.37"/></g></g></svg>