<svg xmlns="http://www.w3.org/2000/svg" viewBox="0 0 46.83 43.86"><defs><style>.cls-1{fill:none;stroke:#fff;stroke-linejoin:round;stroke-width:3.68px;}</style></defs><g id="레이어_2" data-name="레이어 2"><g id="Layer_1" data-name="Layer 1"><path class="cls-1" d="M23.41,42a1.22,1.22,0,0,1-.59-.14C13.26,37.11.48,25.05,2,13.2,2.56,8.41,6.62,2.76,11.71,2a12.7,12.7,0,0,1,1.85-.14A11.47,11.47,0,0,1,23.41,7a11.5,11.5,0,0,1,9.86-5.17A12.7,12.7,0,0,1,35.12,2c5.09.78,9.15,6.43,9.75,11.22C46.35,25.05,33.57,37.11,24,41.88A1.3,1.3,0,0,1,23.41,42Z"/></g></g></svg>