<svg xmlns="http://www.w3.org/2000/svg" viewBox="0 0 243.58 88.54"><defs><style>.cls-1{fill:#e83b0c;}</style></defs><g id="레이어_2" data-name="레이어 2"><g id="Layer_1" data-name="Layer 1"><polygon class="cls-1" points="72.53 35.89 72.53 0 4.71 0 4.71 12.24 58.97 12.24 58.97 23.64 4.71 23.64 4.71 59.72 31.84 59.72 45.4 59.72 72.53 59.72 72.53 47.47 18.27 47.47 18.27 35.89 72.53 35.89"/><polygon class="cls-1" points="45.4 72.53 45.4 63.87 31.84 63.87 31.84 72.53 0 72.53 0 84.77 77.24 84.77 77.24 72.53 45.4 72.53"/><rect class="cls-1" x="84.77" y="72.53" width="77.24" height="12.25"/><polygon class="cls-1" points="157.3 59.72 89.48 59.72 89.48 0 157.3 0 157.3 11.77 103.05 11.77 103.05 47.47 157.3 47.47 157.3 59.72"/><path class="cls-1" d="M169.36,0h49.26V12.25h-7.06V37.68h7.06V49.92H169.36V37.68h7.06V12.25h-7.06Zm.47,54.63h73.75V88.54h0L230,66.88H169.83Zm20.16-17h8V12.25h-8ZM230,0h13.56V49.92H230Z"/></g></g></svg>